<svg width="57" height="62" viewBox="0 0 57 62" fill="none" xmlns="http://www.w3.org/2000/svg">
<path d="M41.1816 49.3835C42.2934 51.4086 40.1044 53.6036 38.034 52.5554C19.0393 42.9369 33.6345 34.022 29.5238 26.5341C27.8594 23.5023 24.0357 22.4089 21.0166 24.1184C18.045 25.7996 17.0337 29.6015 18.6766 32.5941L22.671 39.8701C23.6846 41.7166 21.9242 43.8491 19.9164 43.2094C16.325 42.0672 11.7094 39.267 8.96878 34.2747C4.02335 25.2662 7.32884 13.9141 16.3373 8.96866C25.3458 4.02322 36.698 7.32871 41.6434 16.3372C49.5981 30.8272 36.3637 40.6073 41.1816 49.3835Z" fill="#1E1E1E"/>
</svg>
