<svg width="212" height="54" viewBox="0 0 212 54" fill="none" xmlns="http://www.w3.org/2000/svg">
<path d="M21.204 44.428L17.388 39.856C16.332 40.12 15.252 40.252 14.148 40.252C11.796 40.252 9.636 39.7 7.668 38.596C5.7 37.492 4.14 35.968 2.988 34.024C1.836 32.056 1.26 29.836 1.26 27.364C1.26 24.916 1.836 22.72 2.988 20.776C4.14 18.808 5.7 17.272 7.668 16.168C9.636 15.064 11.796 14.512 14.148 14.512C16.524 14.512 18.684 15.064 20.628 16.168C22.596 17.272 24.144 18.808 25.272 20.776C26.424 22.72 27 24.916 27 27.364C27 29.596 26.52 31.636 25.56 33.484C24.624 35.308 23.34 36.796 21.708 37.948L27.468 44.428H21.204ZM6.444 27.364C6.444 29.044 6.768 30.52 7.416 31.792C8.064 33.064 8.964 34.048 10.116 34.744C11.292 35.416 12.636 35.752 14.148 35.752C15.66 35.752 16.992 35.416 18.144 34.744C19.296 34.048 20.196 33.064 20.844 31.792C21.492 30.52 21.816 29.044 21.816 27.364C21.816 25.684 21.492 24.22 20.844 22.972C20.196 21.7 19.296 20.728 18.144 20.056C16.992 19.384 15.66 19.048 14.148 19.048C12.636 19.048 11.292 19.384 10.116 20.056C8.964 20.728 8.064 21.7 7.416 22.972C6.768 24.22 6.444 25.684 6.444 27.364ZM49.6479 20.056V40H44.5719V37.48C43.9239 38.344 43.0719 39.028 42.0159 39.532C40.9839 40.012 39.8559 40.252 38.6319 40.252C37.0719 40.252 35.6919 39.928 34.4919 39.28C33.2919 38.608 32.3439 37.636 31.6479 36.364C30.9759 35.068 30.6399 33.532 30.6399 31.756V20.056H35.6799V31.036C35.6799 32.62 36.0759 33.844 36.8679 34.708C37.6599 35.548 38.7399 35.968 40.1079 35.968C41.4999 35.968 42.5919 35.548 43.3839 34.708C44.1759 33.844 44.5719 32.62 44.5719 31.036V20.056H49.6479ZM53.3247 29.956C53.3247 27.94 53.7207 26.152 54.5127 24.592C55.3287 23.032 56.4207 21.832 57.7887 20.992C59.1807 20.152 60.7287 19.732 62.4327 19.732C63.9207 19.732 65.2167 20.032 66.3207 20.632C67.4487 21.232 68.3487 21.988 69.0207 22.9V20.056H74.0967V40H69.0207V37.084C68.3727 38.02 67.4727 38.8 66.3207 39.424C65.1927 40.024 63.8847 40.324 62.3967 40.324C60.7167 40.324 59.1807 39.892 57.7887 39.028C56.4207 38.164 55.3287 36.952 54.5127 35.392C53.7207 33.808 53.3247 31.996 53.3247 29.956ZM69.0207 30.028C69.0207 28.804 68.7807 27.76 68.3007 26.896C67.8207 26.008 67.1727 25.336 66.3567 24.88C65.5407 24.4 64.6647 24.16 63.7287 24.16C62.7927 24.16 61.9287 24.388 61.1367 24.844C60.3447 25.3 59.6967 25.972 59.1927 26.86C58.7127 27.724 58.4727 28.756 58.4727 29.956C58.4727 31.156 58.7127 32.212 59.1927 33.124C59.6967 34.012 60.3447 34.696 61.1367 35.176C61.9527 35.656 62.8167 35.896 63.7287 35.896C64.6647 35.896 65.5407 35.668 66.3567 35.212C67.1727 34.732 67.8207 34.06 68.3007 33.196C68.7807 32.308 69.0207 31.252 69.0207 30.028ZM90.0712 19.768C92.4472 19.768 94.3672 20.524 95.8312 22.036C97.2952 23.524 98.0272 25.612 98.0272 28.3V40H92.9872V28.984C92.9872 27.4 92.5912 26.188 91.7992 25.348C91.0072 24.484 89.9272 24.052 88.5592 24.052C87.1672 24.052 86.0632 24.484 85.2472 25.348C84.4552 26.188 84.0592 27.4 84.0592 28.984V40H79.0192V20.056H84.0592V22.54C84.7312 21.676 85.5832 21.004 86.6152 20.524C87.6712 20.02 88.8232 19.768 90.0712 19.768ZM108.688 24.196V33.844C108.688 34.516 108.844 35.008 109.156 35.32C109.492 35.608 110.044 35.752 110.812 35.752H113.152V40H109.984C105.736 40 103.612 37.936 103.612 33.808V24.196H101.236V20.056H103.612V15.124H108.688V20.056H113.152V24.196H108.688ZM135.605 20.056V40H130.529V37.48C129.881 38.344 129.029 39.028 127.973 39.532C126.941 40.012 125.813 40.252 124.589 40.252C123.029 40.252 121.649 39.928 120.449 39.28C119.249 38.608 118.301 37.636 117.605 36.364C116.933 35.068 116.597 33.532 116.597 31.756V20.056H121.637V31.036C121.637 32.62 122.033 33.844 122.825 34.708C123.617 35.548 124.697 35.968 126.065 35.968C127.457 35.968 128.549 35.548 129.341 34.708C130.133 33.844 130.529 32.62 130.529 31.036V20.056H135.605ZM165.346 19.768C167.794 19.768 169.762 20.524 171.25 22.036C172.762 23.524 173.518 25.612 173.518 28.3V40H168.478V28.984C168.478 27.424 168.082 26.236 167.29 25.42C166.498 24.58 165.418 24.16 164.05 24.16C162.682 24.16 161.59 24.58 160.774 25.42C159.982 26.236 159.586 27.424 159.586 28.984V40H154.546V28.984C154.546 27.424 154.15 26.236 153.358 25.42C152.566 24.58 151.486 24.16 150.118 24.16C148.726 24.16 147.622 24.58 146.806 25.42C146.014 26.236 145.618 27.424 145.618 28.984V40H140.578V20.056H145.618V22.468C146.266 21.628 147.094 20.968 148.102 20.488C149.134 20.008 150.262 19.768 151.486 19.768C153.046 19.768 154.438 20.104 155.662 20.776C156.886 21.424 157.834 22.36 158.506 23.584C159.154 22.432 160.09 21.508 161.314 20.812C162.562 20.116 163.906 19.768 165.346 19.768Z" fill="#1E1E1E"/>
<path d="M193.708 35.212H183.7L182.044 40H176.752L185.788 14.836H191.656L200.692 40H195.364L193.708 35.212ZM192.34 31.18L188.704 20.668L185.068 31.18H192.34ZM209.11 14.872V40H204.07V14.872H209.11Z" fill="#F5993C"/>
</svg>
